<svg xmlns="http://www.w3.org/2000/svg" width="240" height="240" viewBox="0 0 2400 2400" preserveAspectRatio="xMidYMid meet"><path d="M700 2226c-30-7-75-21-100-30-71-27-142-46-175-46-17 0-64-9-105-21-81-23-138-21-189 4-76 38 0-34 99-93 90-54 141-70 224-70 51 0 90 8 141 26 39 15 90 32 115 39 54 15 54 16 65-105 14-137 13-138-47-230-106-162-159-300-178-464-20-167 14-334 103-519 89-183 184-306 277-358 36-20 37-23 29-53-11-37 3-86 31-111 11-10 39-20 64-22 42-5 48-3 81 30 37 37 46 78 25 117-13 25 1 33 43 25 33-7 34-7 24-43-12-49 3-86 45-112 61-37 122-21 153 40 19 36 19 57 1 92-13 25-13 28 5 33 32 10 134 119 184 196 94 145 168 317 195 457 18 91 8 278-20 367-30 96-102 233-173 328l-59 79 19 132 19 131 46-2c26 0 86-16 135-34 109-40 216-50 289-25 71 23 244 135 244 158 0 3-23-2-50-13-63-24-89-24-168 1-35 11-83 20-107 20s-87 16-141 35c-193 68-328 70-519 5-49-17-103-30-119-30-17 0-80 16-141 36-129 41-271 53-365 30z"/><path d="M1045 2110c-74-12-205-50-205-60 0-13 151-49 247-59 116-12 268 2 365 33l73 23-30 12c-114 47-323 70-450 51zm-221-148c14-24 234-62 356-62 118 0 350 40 350 60 0 4-35-2-77-13-64-17-111-20-268-21-183-1-236 6-349 40-11 4-16 2-12-4zm46-218c126-58 334-73 493-35 48 11 100 27 115 36 39 21 24 18-75-12-77-23-105-26-228-26-116 0-153 3-215 22-104 30-135 35-90 15zm659-63c-41-31-122-68-177-80-75-16-258-14-342 4-71 15-140 44-172 73-10 8-18 10-18 4 0-17 54-51 115-72 133-46 337-51 464-11 60 19 161 77 161 94 0 11-5 9-31-12zm125-136c36-94 32-353-8-511-64-257-220-497-409-629-28-20-17-28 47-33 75-6 117 11 186 75 101 93 200 264 268 461 35 102 36 113 36 237 0 115-3 140-28 215-28 85-81 200-92 200-3 0-4-7 0-15zm-582-158c-29-30-31-35-17-47 12-10 15-36 15-131v-119H967c-92 0-106 2-122 20-18 20-18 20-47-7-35-34-35-42 2-78 28-27 31-27 48-12 15 14 39 17 120 17h102v-97c0-71-4-101-15-113-13-15-11-20 18-48l33-32 35 36c31 32 32 36 17 45-15 8-18 25-18 109v100h102c81 0 105-3 120-17 18-16 20-15 51 15l32 32-32 31c-30 30-32 31-54 15-18-12-47-16-121-16h-98v117c0 89 3 120 15 133 13 15 11 20-18 48l-33 32-32-33zm220-1063c-22-15-30-57-14-80 16-24 51-35 75-23 29 16 37 28 37 60 0 50-54 74-98 43z" fill="#fff"/></svg>