<svg xmlns="http://www.w3.org/2000/svg" width="240" height="240" viewBox="0 0 2400 2400" preserveAspectRatio="xMidYMid meet"><path d="M685 2230c-38-10-103-30-142-44-40-14-90-26-112-26s-68-9-103-20c-80-25-108-25-168 1-51 22-80 20-80-5 0-20 144-127 217-162 44-21 77-29 138-32 73-4 91-1 204 37 68 23 125 40 126 39 1-2 7-55 14-119l12-116-56-84c-70-106-117-204-152-316-24-80-27-103-27-248 0-146 3-168 27-249 74-240 201-444 327-525 52-34 56-39 48-62-12-30 5-89 32-114 10-9 39-20 63-22 36-4 48-1 75 22 36 30 49 76 32 119-13 36-10 39 33 31l36-7-6-49c-5-45-4-50 30-84 25-25 44-35 66-35 39 0 87 24 101 49 12 24 13 91 1 110-7 10 6 25 48 56 128 94 275 348 322 554 32 139 27 312-11 440-34 114-78 196-192 357l-36 51 14 89c25 163 22 154 51 154 14 0 83-18 152-41 114-37 133-41 206-37 65 3 92 10 145 37 79 40 210 138 210 157 0 24-24 26-71 5-56-26-97-26-177-1-35 11-81 20-101 20-21 0-94 18-162 41-198 66-308 64-515-7l-101-35-81 30c-168 62-309 75-437 41z"/><path d="M740 2203c-14-2-80-22-147-43-67-22-139-40-160-40s-72-11-113-24c-41-12-81-21-87-19-7 3-13 0-13-5s33-26 73-47c60-31 85-38 147-42 69-4 86-1 207 40 72 25 133 43 136 41 2-2 33 5 68 15 102 32 201 53 244 53 36-1 38 1 22 13-52 38-280 73-377 58zm725-4c-70-15-156-42-161-51-3-4-15-8-27-9-12 0 17-9 66-19 48-10 117-28 152-39 36-12 87-21 113-20 32 0 86-13 167-41 109-38 127-41 195-37 62 4 87 11 148 42 39 21 72 42 72 48 0 5-7 7-15 4-8-4-40 3-72 14s-96 25-143 30c-47 6-89 14-95 19-5 4-46 20-90 35-87 29-234 40-310 24zm-460-104c-33-7-87-22-119-33l-60-20 70-21c120-35 199-44 333-38 111 5 247 31 284 54 12 8-111 49-188 62-82 15-241 12-320-4zm-193-112c3-26 9-30 93-52 79-22 112-25 270-25 158-1 191 2 273 23 89 23 92 24 92 52 0 16-2 29-3 29-2 0-30-9-61-20-164-56-387-58-570-5-48 14-89 25-92 25s-4-12-2-27zm8-87c0-13 3-44 6-70 6-38 12-50 34-61 55-28 180-56 272-60 108-5 188 6 297 40 86 28 84 24 97 124 7 51 6 54-12 47-142-57-505-61-649-6-38 15-45 13-45-14zm-17-173c-9-24 36-58 137-102 41-17 111-30 168-31h52v38c0 37-2 39-32 40-55 2-180 29-238 51-66 25-79 26-87 4zm648-4c-48-18-123-36-223-53-36-6-38-9-38-43v-36l78 6c92 7 175 34 237 77 48 33 52 39 33 58-15 15-21 15-87-9zm-689-52c-22-27-112-211-131-270-62-193-49-441 33-622 13-27 26-58 30-68 13-39 89-160 136-216 98-118 185-155 287-123 80 25 135 62 220 148 85 87 149 177 193 274l53 120c23 53 55 194 67 295 19 149-7 322-63 427l-24 45-24-20c-90-73-229-105-414-96-140 7-212 27-290 79-60 40-62 41-73 27zm390-274c43-42 46-53 18-78-17-16-20-31-20-117v-98h92c81 0 95 3 115 22l23 22 90-88-44-45c-43-43-46-44-64-28-15 14-38 17-115 17h-97v-77c0-65 3-80 22-100l22-24-90-90-48 42-47 42 25 26c23 24 26 35 26 104v77h-92c-78 0-95-3-113-20l-21-20-88 90 46 47 47 47 24-22c20-19 34-22 110-22h87v103c0 91-3 106-20 122-19 17-19 18 17 61 19 24 40 44 46 44s28-17 49-37zm-86-22c-28-29-28-29-7-40 20-11 21-20 21-131v-120H978c-88 0-105 3-123 20l-21 20-68-70 31-32c31-30 33-31 51-15 15 14 39 17 125 17h107v-92c0-78-3-95-20-113l-20-21 66-64 29 30c25 26 28 33 17 50-7 12-12 57-12 115v95h102c81 0 105-3 120-17 18-16 20-15 51 15l32 32-32 32c-31 30-33 31-51 15-15-14-39-17-120-17h-102v119c0 94 3 121 15 131 14 12 13 16-11 42-35 35-43 35-78-1zm599 147c60-297-15-635-199-897-53-75-165-191-219-226-37-24-24-34 44-37 147-6 291 145 412 432 81 191 92 406 32 587-28 82-80 186-70 141zM1023 322c-12-9-25-29-28-44-6-22-1-32 20-53 37-33 69-32 94 4 26 36 26 53 4 79-25 28-64 34-90 14zm262-8c-30-33-32-67-5-94 41-41 110-13 110 45 0 26-7 38-29 54-38 27-47 26-76-5z" stroke="#fff"/><g fill="#fff"><path d="M750 2203c-37-6-133-35-146-44-17-14-126-39-166-39-21 0-64-8-96-19-31-10-70-22-85-25l-29-7 24-17c23-17 66-38 121-61 59-24 165-10 262 34 32 15 108 34 160 41 17 2 62 15 101 28 61 22 110 32 197 41 12 1 24 3 27 4s-35 15-84 31c-86 29-216 44-286 33zm725-5c-27-4-85-21-128-36l-77-28 70-12c39-7 97-21 128-31s86-22 122-25c75-6 141-21 185-41 97-44 203-58 262-34 54 22 98 44 121 61 22 16 22 16-28 27-28 6-67 18-86 26-20 8-53 15-73 15-39 0-148 25-165 39-47 35-228 57-331 39zm-480-108c-44-9-97-24-118-31l-39-15 69-22c179-57 431-52 597 14 20 8 9 12-124 51-82 24-285 26-385 3zm-185-99c0-29 46-48 170-73 211-41 545-2 558 66 3 16 0 18-19 12-81-22-208-47-271-52-113-9-329 22-420 61-14 5-18 2-18-14zm15-134c4-34 13-68 20-76 28-29 185-70 290-75 72-4 190 7 235 23 14 4 51 16 82 26l56 18 11 62c14 81 15 78-16 72-16-3-64-13-108-22-155-31-344-24-518 19l-59 15 7-62zm-20-128c-9-14 30-54 77-79 56-29 175-60 230-60h48v38c0 38 0 39-41 40-51 2-228 39-243 51-19 15-64 22-71 10zm665-8c-41-16-150-41-242-56-35-5-38-8-38-40 0-34 1-35 43-35 132 1 341 94 306 137-14 16-12 16-69-6zm-718-73c-21-34-76-143-107-211-24-55-52-201-54-289-4-151 27-271 119-458 108-219 223-330 345-330 76 0 178 55 270 147 255 254 387 691 305 1016-7 26-16 50-21 53s-9 12-9 19c0 8-8 28-18 44l-18 30-49-34c-28-19-56-34-63-35-7 0-20-4-30-10-33-19-168-37-262-34-164 4-268 32-344 93-21 17-40 31-42 31-1 0-11-15-22-32zm428-323c-17-18-20-35-20-123v-102h87c75 0 90 3 110 22l23 22 90-88-94-96-21 20c-18 17-35 20-108 20h-87v-83c0-72 3-87 20-102 21-19 20-19-22-62-23-24-45-43-49-43-3 0-27 19-53 41l-47 42 25 26c23 24 26 35 26 104v77h-93c-82 0-96-3-112-20-19-21-19-20-67 27l-48 47 94 96 26-25c24-23 34-25 114-25h88l-4 104c-2 86-6 108-22 125-20 22-19 22 24 66l44 45 96-94-20-21z"/><path d="M1070 1375c-22-23-22-26-7-43 14-15 17-40 17-135v-117H973c-81 0-110 4-123 15-15 14-20 13-43-6-34-26-34-39 1-73 26-24 30-25 42-11 10 12 36 15 121 15h109v-94c0-71-4-97-15-106-21-18-19-33 10-60 23-22 25-22 50-6 31 21 42 43 26 59-7 7-11 49-11 109v98h102c81 0 105-3 120-17 18-16 20-15 51 15l32 32-32 32c-31 30-33 31-51 15-15-14-39-17-120-17h-102v119c0 94 3 121 15 131 14 12 13 16-11 42-34 34-44 35-74 3zm607 88c5-16 8-86 8-158-1-283-91-539-263-745-43-52-106-115-140-140-68-49-66-60 8-60 124 0 218 78 342 285 22 37 29 51 67 140 93 220 95 459 4 668-19 43-37 50-26 10zM1286 311c-40-42-25-91 34-106 35-8 59 13 66 57 6 34 4 39-27 57-19 12-37 21-40 21s-18-13-33-29zm-264 3c-56-39-6-130 58-104 39 16 56 51 40 81-23 43-58 51-98 23zM751 2199c-29-5-99-25-154-44s-117-35-136-35c-33 0-218-44-228-54-3-2 30-21 73-43 107-52 175-52 324 0 58 20 131 41 163 46 31 6 65 14 75 20 16 8 127 33 206 46 21 3 36 8 34 10s-42 15-88 28c-101 29-195 38-269 26zm759 1c-61-8-208-49-215-60-3-4 18-10 45-14s82-17 122-30 105-26 143-29c44-4 109-20 175-44 149-53 216-53 326 1l79 40-35 9c-19 5-64 18-99 28-35 11-80 19-100 19-21 0-82 15-137 34-87 31-209 58-239 55-5-1-35-5-65-9zm-455-100c-27-4-88-18-135-30l-84-23 54-19c94-32 236-51 338-44 92 5 268 41 277 55 6 10-120 47-205 61-73 11-170 11-245 0zm-245-110c0-25 21-36 127-62 130-33 370-31 497 3 82 22 122 47 104 64-3 4-36-3-72-14-180-56-461-49-612 14-45 19-44 19-44-5z"/><path d="M826 1866c12-89 15-92 106-122 119-38 297-45 420-15 149 35 153 38 165 112 6 35 9 65 8 67-2 2-29-4-61-12-33-9-107-21-167-28-123-14-281-2-405 30l-72 19 6-51zm-21-135c-9-16 0-27 52-62 57-39 137-65 231-75l72-7v36c0 39-1 40-115 52-51 6-160 36-216 59-10 4-20 3-24-3zm650-16c-53-20-113-34-232-51-30-4-33-8-33-39 0-32 2-35 30-35 129 0 332 86 315 133-8 20-5 21-80-8zm-707-78c-104-167-151-324-152-502 0-147 29-265 104-424 113-235 248-362 371-348 190 23 433 301 522 597 78 257 76 487-5 661l-23 49-50-34c-74-48-126-66-240-78-179-20-358 12-445 81-19 15-40 30-45 33-6 4-23-12-37-35zm432-312c-17-18-20-35-20-123v-102h87c76 0 90 3 110 22l24 22 94-94-94-94-24 22c-20 19-34 22-110 22h-87v-83c0-72 3-87 20-102 21-19 20-19-27-67l-47-48-96 94 25 26c22 23 25 35 25 103v77h-93c-82 0-96-3-112-20-19-21-19-20-67 27l-48 47 94 96 26-25c23-22 34-25 107-25 95 0 93-2 93 110 0 69-3 82-24 107l-25 28 93 95 96-94-20-21zm-110 50c-22-23-22-26-7-43 14-15 17-40 17-135v-117H973c-81 0-110 4-123 15-15 14-20 13-43-6-34-26-34-39 1-73 26-24 30-25 42-11 10 12 36 15 121 15h109v-92c0-72-4-95-17-110-16-18-15-20 13-49l30-30 27 21c31 24 34 42 12 60-13 10-15 32-13 108l3 95 104-2c58-1 111-7 122-14 16-10 24-7 49 19l30 30-30 29c-28 27-31 27-48 12-15-14-40-17-125-17h-107v113c0 102 2 116 20 132 20 18 20 18-7 47-33 34-43 35-73 3zm614-63c-1-165-3-185-32-295-65-247-207-477-372-603-56-43-52-52 25-53 153-2 354 255 437 559 19 70 23 109 23 220-1 125-3 142-33 229-18 51-36 100-40 107s-7-67-8-164zm-662-998c-27-19-29-64-4-87 43-39 102-15 102 42 0 52-53 77-98 45zm263-4c-22-24-23-67-2-87 23-23 68-19 89 7 23 29 23 55-2 80s-62 26-85 0z"/></g></svg>