<svg xmlns="http://www.w3.org/2000/svg" width="240" height="240" viewBox="0 0 2400 2400" preserveAspectRatio="xMidYMid meet"><path d="M1025 2129c-106-14-257-55-359-98-102-42-93-24-80-157 8-80-9-116-90-191-212-196-299-431-236-636 26-84 96-164 178-204 53-26 65-28 182-28 113 0 131 3 191 28 52 21 76 26 107 21 38-6 40-8 31-31-5-13-9-146-9-294V270h521l-1 293-2 292 36 9c29 6 47 4 84-12 125-53 296-57 395-9 196 96 252 337 137 584-43 93-77 138-190 250l-102 102 5 78c3 43 7 89 9 103 3 21-5 29-52 52-73 36-216 83-315 103-95 20-340 28-440 14z"/><g fill="#fff"><path d="M1045 2093c-76-10-181-35-257-62-128-44-149-53-144-59 9-8 118-51 171-66 224-65 510-73 705-20 112 31 240 78 237 87-1 5-23 16-47 24-25 8-49 19-55 23-15 12-168 51-260 66-73 12-279 17-350 7zm-421-169c3-9 6-28 6-42 0-25 7-29 78-51 218-69 310-82 537-77 170 3 219 10 360 47 22 5 58 15 80 20 22 6 44 14 50 20 5 5 17 9 27 9 13 0 18 8 18 29 0 16 3 37 6 46 6 14 3 15-27 1l-69-29c-46-20-198-55-306-71-115-17-293-12-429 12-105 19-289 74-309 93-16 14-29 10-22-7zm-3-141c-5-19-26-54-45-78-20-24-36-46-36-48 0-3 19-10 43-16 23-5 78-19 122-30 244-63 610-73 869-26 125 23 201 42 263 65l33 12-39 45c-22 24-43 58-46 74-8 36-20 36-111 5-118-42-361-75-505-70-170 5-313 31-491 87l-48 15-9-35zm264-90l34-27-47-12c-49-13-64-9-110 27l-22 17 27 10c48 18 82 13 118-15zm754 14l32-14-41-28c-39-27-42-27-81-15-22 8-42 17-45 21-6 10 57 47 82 48 12 1 36-5 53-12zm-387-48l41-21-84-48-47 24-46 23 39 21c50 26 47 26 97 1zm-769-44c-51-35-131-163-183-290-18-45-25-186-11-242 15-57 67-140 107-169 96-68 230-85 359-44 191 61 333 183 425 366l26 50 26-56c15-31 51-86 80-122 264-329 711-350 804-38 18 62 15 203-6 255-50 123-108 217-172 278-22 21-36 27-51 22-121-37-237-63-352-81-160-25-501-25-660-1-94 14-307 63-355 81-8 4-25-1-37-9zm705-442c-30-59-120-162-188-214-73-55-75-64-13-70 27-3 36 2 55 30 39 58 71 75 148 79 89 5 149-21 181-78 20-35 25-38 53-33 59 11 58 17-14 73-67 52-147 141-189 210l-19 32-14-29zm-61-222c-95-45-96-139-1-181 58-25 100-25 157-1 31 14 48 29 61 55 16 34 16 38 0 72-31 66-137 92-217 55zM990 824c-6-14-10-39-10-55 0-29 1-29 56-29h56l-36 42c-20 23-36 48-36 55 0 22-20 14-30-13zm400 9c0-5-16-28-36-51l-36-42h102v39c0 22-6 44-15 51-8 7-15 8-15 3z"/><path d="M1100 620c52-49 97-89 100-89s32 25 65 55c33 31 75 67 93 81 17 14 32 29 32 34s-87 9-192 9l-193-1 95-89zM980 505V327l53 49 96 90 45 42-65 60c-35 33-79 72-96 87l-33 27V505zm340 88c-47-42-86-79-88-83-3-7 172-170 182-170 3 0 6 74 6 165s-3 165-7 165c-5 0-46-35-93-77zm-210-189c-47-42-86-80-88-85s75-9 184-9h189l-25 24c-57 55-162 146-169 146-3 0-44-34-91-76zm-74 1685c-88-12-204-42-312-81-69-25-83-33-69-40 42-24 183-69 277-89 138-30 401-33 528-5 101 21 300 85 300 96 0 10-153 66-248 91-146 37-320 48-476 28zm-404-196l3-37 90-29c175-56 272-70 480-71 146-1 210 3 275 17 114 24 283 76 292 91 4 6 8 24 8 40 0 23-3 27-17 20-129-57-318-100-488-110-174-11-429 30-575 91-32 14-62 25-65 25-4 0-5-17-3-37zm-2-89c0-24-30-76-62-110l-30-32 49-16c171-56 379-86 606-86 243 0 431 25 615 82l63 19-41 45c-22 24-43 58-47 75-7 35 3 35-138-5-301-87-654-80-945 19-58 20-70 21-70 9zm248-104c23-17 42-32 42-34s-22-9-50-16c-48-12-51-11-90 18l-41 30 43 15c24 9 46 16 49 16 3 1 25-13 47-29zm766 6l29-11-42-29c-39-27-43-28-86-16-25 7-45 16-45 20s17 19 37 33c38 27 46 27 107 3zm-392-47l41-21-84-48-47 24-46 23 39 21c50 26 47 26 97 1zm-788-65c-60-64-129-176-153-250-34-104-38-187-13-271 70-228 338-292 595-142 37 22 97 68 133 101 66 62 164 198 164 228 0 36 14 27 42-28 90-172 252-310 426-362 95-29 211-25 289 9 62 27 126 93 156 159 31 69 30 202-2 301-39 120-170 300-208 288-264-84-380-101-688-101-216 0-267 3-377 22-108 20-255 56-312 78-11 4-29-7-52-32z"/><path d="M1166 1135c-44-66-139-163-197-202l-43-28 42-9c42-9 43-8 79 34 45 52 85 70 160 70 72 0 135-29 163-76 22-35 38-39 89-25 23 6 23 7-16 33-55 36-159 143-201 205-19 29-36 53-37 53s-19-25-39-55zm-19-180c-59-20-87-52-87-96 0-102 185-143 265-59 55 58 20 136-70 159-54 14-61 13-108-4zM997 829c-9-13-17-38-17-56v-33h114l-31 33c-18 17-36 43-41 56l-9 24-16-24zm393 2c0-6-16-29-36-51l-36-40h102v39c0 22-6 44-15 51-10 9-15 9-15 1zm-295-206c44-41 88-77 98-80 12-5 41 15 102 70 47 43 85 79 85 81s-82 4-182 4h-183l80-75zM980 510c0-134 3-170 13-164 6 4 49 41 95 83 95 86 98 67-30 183l-78 70V510zm337 77l-89-82 73-65c40-36 83-73 96-83l23-18v165c0 91-3 166-7 166-5 0-48-38-96-83zm-212-192l-90-84 189-1h189l-59 53c-89 81-131 117-135 117-2 0-44-38-94-85z"/></g></svg>