<svg xmlns="http://www.w3.org/2000/svg" width="240" height="240" viewBox="0 0 2400 2400" preserveAspectRatio="xMidYMid meet"><path d="M999 2105c-123-20-199-41-317-87-85-33-102-43-96-57 18-42 26-102 20-146-7-43-17-58-122-167-94-98-121-135-158-208-54-108-70-179-64-285 6-104 34-169 102-233 74-70 126-87 261-87 98 1 118 4 186 31 145 58 287 177 360 302l36 61 15-32c52-108 199-248 321-306 195-93 397-79 511 35 60 60 90 134 94 230 5 109-11 177-66 287-40 80-61 107-159 205-62 62-116 124-119 137-7 28 0 138 11 171 6 20-3 26-101 64-166 65-291 90-474 95-106 3-183 0-241-10zm-146-210c146-38 244-48 406-42 160 6 262 26 422 80 98 34 109 35 109 12 0-16-220-89-330-110-252-47-521-21-767 75-75 28-95 45-77 63 3 3 37-8 75-24s111-40 162-54zm-96-74c175-56 242-66 443-66 197 0 258 9 437 61l107 32c13 4 17 0 14-14-2-13-27-26-90-46-207-66-434-91-614-68-178 22-434 95-419 120 9 15 20 13 122-19zm106-127c43-29 42-34-13-50-35-10-42-9-68 10-16 11-30 26-30 31-1 8 44 31 68 34 3 1 23-11 43-25zm782 6c14-5 25-11 25-13 0-3-17-16-38-29-36-24-39-25-85-11l-49 14 39 29c38 29 53 31 108 10zm-400-47c19-9 35-20 35-23 0-4-17-15-39-24-37-17-39-17-82 4l-43 22 35 19c43 23 50 23 94 2zm-573-57c175-46 304-60 533-60s352 14 530 61c116 30 137 32 142 16 8-21-195-74-376-98-142-19-449-19-598 0-198 26-383 75-383 102 0 18 12 17 152-21zm513-436c-15-46-134-176-213-231-45-32-47-49-6-49 29 0 30-5 4-37-19-24-20-41-20-289V290h500v250c0 200-3 258-15 287-19 46-19 53 4 53 36 0 31 18-17 55-67 54-160 152-189 202-28 48-39 53-48 23zm130-200c129-80 54-239-113-240-64 0-107 17-147 59-40 43-42 106-5 147 62 67 186 83 265 34zm93-447l-3-188-207-3-208-2v380h420l-2-187zm-253 448c-69-17-105-54-105-109 0-57 76-112 154-112 70 0 156 64 156 116 0 35-56 89-105 103-44 12-56 12-100 2zm-40-356c44-41 82-75 85-74 3 0 41 33 85 74l80 75-165-1h-165l80-74zm-105-95V358l85 77 85 78-62 56c-34 31-72 64-85 74l-23 18V510zm293 80c-46-40-83-76-82-79 0-3 37-38 82-78l82-71 3 74c2 41 2 109 0 151l-3 77-82-74zm-188-167l-77-68 81-3c45-2 117-2 160 0l79 3-73 65c-41 35-78 66-83 68-5 1-44-28-87-65z"/><path d="M610 1960c0-19 190-88 322-117 118-25 419-25 538 0 89 19 284 80 310 96 38 25-8 19-101-13-339-115-676-110-979 13-82 34-90 36-90 21zm34-121c-7-12 40-32 156-63 225-60 432-72 642-37 118 21 318 79 318 93 0 12-16 10-104-17-181-55-270-69-451-69-186 0-290 17-467 73-49 16-91 25-94 20zm149-133c-46-16-48-21-13-46 30-22 35-22 76-9l43 14-37 26c-33 23-41 25-69 15zm753-15l-39-26 45-14c43-13 47-12 77 10 34 25 32 31-14 46-25 9-36 6-69-16zm-383-38c-18-9-33-19-33-23 0-3 16-14 35-23 34-16 37-16 77 4l42 21-35 19c-41 22-45 22-86 2zm-633-37c0-9 2-16 4-16 1 0 54-13 117-30 306-79 662-90 974-29 121 23 245 59 245 70 0 13-18 11-95-11-161-46-282-62-515-67-171-4-254-1-346 11-106 14-314 60-366 81-13 5-18 2-18-9zm566-659c-153-95-16-276 167-223 119 35 150 145 59 214-30 23-47 27-111 30-66 3-81 0-115-21zm190-3c72-34 95-105 52-159-62-80-239-71-283 15-19 37-19 53 1 91 31 60 155 89 230 53zM990 515V330l206 2 205 3v360l-205 3-206 2V515zm315 101c-110-102-100-101-194-16-45 40-81 74-81 76s78 4 173 4h172l-70-64zm-140-86l20-22-60-54c-33-30-72-63-87-75l-28-20v313l68-60c37-33 76-70 87-82zm223-99l-3-79-88 82-88 81 176 154 3-80c2-43 2-115 0-158zm-98-11l85-79-173-1c-103 0-172 4-170 9 3 11 160 151 168 151 3 0 43-36 90-80z" fill="#fff"/></svg>