<svg xmlns="http://www.w3.org/2000/svg" width="240" height="240" viewBox="0 0 2400 2400" preserveAspectRatio="xMidYMid meet"><path d="M170 2112c0-33 3-93 6-135 6-64 10-78 27-83 19-6 19-6-1-26-15-15-18-26-12-42 4-11 16-65 26-119 13-75 23-102 38-113 17-11 19-18 10-32-9-13-4-39 23-117 39-112 57-145 78-145 12 0 13-4 4-18-10-16-3-36 41-120 40-76 58-102 73-102 14 0 17-5 13-17-9-22 98-181 130-194 13-4 24-16 24-26 0-29 128-163 155-163 17 0 22-5 19-17-3-17 67-82 154-142l33-23 130 40 47-32c46-30 47-33 72-131 24-98 26-100 55-103 28-3 38 6 100 78 37 44 70 80 71 80s28-36 59-80c55-79 93-106 116-83 5 5 17 57 26 114l16 103 87 91c100 106 130 159 130 233 0 61 9 81 148 321 112 194 141 260 142 319 0 49-21 107-53 140-35 38-105 75-130 69-12-3-31 1-41 9-29 21-98 18-130-7-14-11-46-47-71-79-26-34-77-81-122-113-43-30-95-72-115-95l-36-40-41 14c-44 15-120 5-150-19-12-10-13-2-8 63 16 189 77 280 322 475 77 61 154 128 172 148 39 45 79 113 88 150l7 27H170v-58z"/><path d="M210 2030c0-99 0-100 28-114 18-9 44-12 76-9l49 6-6 93c-3 52-2 94 3 94 4 0 11-39 14-87 12-152 26-244 57-367 84-341 276-674 538-934 122-122 146-161 37-62-36 33-72 60-80 60-16 0-66-45-66-59 0-11 63-67 119-106l38-25 64 17 65 17 57-33c61-35 66-44 97-184 7-31 16-57 19-57s37 36 74 80l68 80h61c86 0 129 24 230 128 99 101 142 175 132 227-8 44 13 90 163 353 113 198 118 208 121 271 2 53-1 72-17 98-21 33-90 83-114 83-19 0-60-42-98-101-17-27-35-49-40-49-15 0-11 10 36 77 25 35 45 68 45 74 0 16-47 32-74 25-14-3-50-37-85-80-38-46-91-95-139-129-44-31-95-74-115-97-33-39-39-42-69-36-84 18-113 17-146-4-66-41-112-147-112-260 0-31-4-50-11-50-17 0-5 145 15 194 9 22 15 41 12 43-10 10-105-80-126-121-14-25-29-46-33-46-12 0 2 40 24 72 23 32 118 118 130 118a8.96 8.96 0 0 1 9 9c0 13-106 31-140 24-19-3-30-1-30 6 0 14 118 15 153 2 24-10 25-9 31 72 9 105 31 189 64 251 39 72 148 182 302 304 88 70 148 126 172 161 21 30 38 58 38 63 0 4-369 8-820 8H210v-100zm1891-648c18 3 28 0 26-6s-20-12-40-14c-34-3-37-6-37-33 0-45-24-83-80-124-27-20-58-50-67-66-18-30-33-38-33-16 0 6 33 44 74 82 82 77 100 110 90 162-6 34-6 35 16 23 12-7 35-10 51-8zm-393-534c18-18 14-69-8-106-24-39-89-71-142-72-38 0-51 13-24 23 11 4 13 16 9 40-6 39 15 88 49 111 27 19 99 21 116 4zm-118-37c-30-30-41-83-20-96 6-4 8-11 5-16-9-13 10-11 49 5 45 19 78 63 74 100-3 28-7 31-41 34-30 3-43-2-67-27zM256 1869c-30-24-32-46-11-139l20-87c7-32 50-42 102-25 38 13 44 18 39 36-3 12-14 69-23 128l-18 108h-41c-27 0-51-7-68-21zm105-273c-18-6-42-22-52-35-18-22-17-24 17-119 40-110 33-99 64-110 20-7 81 6 108 24 8 5-83 254-93 253-5 0-25-6-44-13zm102-276c-69-31-71-48-20-143 38-71 48-82 73-85 31-3 108 24 102 36-17 37-109 212-111 211-1 0-21-9-44-19zm120-236c-60-26-60-45-2-129 46-66 56-75 83-75 17 1 45 9 63 18l32 17-61 90c-33 50-66 91-72 92s-25-5-43-13zm152-207c-22-13-41-30-43-40-5-27 104-147 133-147 25 0 85 30 85 43 0 4-30 43-67 85l-67 79c-1 1-19-8-41-20zm895-447c-8-5-26-10-40-10-50-1-51-12-8-78 22-34 44-62 48-62 8 0 13 24 26 113 6 47 1 55-26 37z" fill="#fff"/><path d="M212 2030c4-117 6-120 91-120h59l-7 95c-5 65-4 95 3 95 13 0 19-35 27-155 22-362 187-765 440-1075 30-36 99-109 154-164 91-89 113-116 95-116-4 0-38 28-76 62-69 61-70 61-96 46-47-29-46-52 6-95 26-21 62-49 80-62l32-22 122 42 60-38c64-41 70-50 98-166 7-32 17-60 20-62 4-3 39 31 78 74 71 78 72 79 114 74 84-10 122 10 229 115 112 111 150 177 142 243-6 45 10 79 169 357 104 182 127 245 114 315-8 41-59 97-107 117-36 15-52 3-111-82-21-32-43-58-48-58-19 0-14 10 52 109 23 34 23 48-2 61-29 15-86-14-115-59-31-49-108-120-178-166-32-21-72-55-89-76-39-48-52-53-94-33-39 19-92 14-130-11-53-35-104-157-104-251 0-30-4-54-10-54-17 0-11 115 9 179 17 54 17 60 2 52-29-17-110-105-120-133-13-34-35-38-26-5 12 39 59 99 108 138 44 35 46 39 28 49-11 5-47 10-80 10-34 0-61 4-61 9 0 17 74 22 126 8l51-13 7 92c6 93 26 165 66 244 28 56 190 218 290 292 92 67 160 132 194 187 14 22 26 43 26 46s-369 5-821 5H208l4-100zm1881-644c24 0 37-5 37-13s-13-13-34-13c-32 0-35-2-41-42-6-36-21-55-96-130-49-47-91-83-94-79-7 13 46 76 103 122 57 47 67 69 59 130-5 35-3 39 11 33 10-5 34-8 55-8zm-407-526c7 0 21-11 30-24 14-23 14-28-5-70-23-52-62-80-134-96-56-12-67-8-49 20 7 11 12 37 12 59 0 24 8 48 22 66 23 30 75 57 96 50 8-3 20-5 28-5zm-92-47c-31-34-40-68-24-98 11-21 15-22 43-10 60 25 98 81 83 120-10 26-73 19-102-12zM290 1883c-8-3-25-15-38-26-25-24-25-35 4-169 13-57 19-67 41-73 15-3 46 0 70 7 40 12 43 15 37 38-3 14-14 70-23 125-17 99-18 100-47 102-16 1-36-1-44-4zm83-286c-28-5-47-16-59-35-17-26-17-29 16-124 37-112 48-120 126-98 34 10 44 17 41 29l-44 126-38 111-42-9zm80-281c-58-26-60-46-8-141s65-101 137-67l37 17-52 100c-29 55-59 101-67 102s-29-4-47-11zm130-232c-18-7-37-23-43-34-12-22 0-42 78-141 27-34 60-37 109-11l32 17-62 92c-34 51-66 92-72 92-5 0-24-7-42-15zm145-209c-51-28-47-51 25-123 70-70 87-74 136-35l22 18-67 78c-37 42-72 77-78 77-6-1-23-7-38-15zm910-441c-4-3-27-11-53-18l-47-11 43-58c23-31 46-57 50-57 6 0 29 108 29 138 0 13-13 16-22 6z"/><path d="M212 2033c6-107 15-123 72-123 74 0 75 2 69 106-5 83-4 94 11 94 13 0 16-12 16-77 1-149 45-387 106-563 94-271 290-571 509-778 57-54 91-93 85-97-12-7-29 5-101 73l-47 44-31-16c-50-26-41-52 40-117l71-57 132 38 54-33c67-39 75-52 97-147 10-41 21-78 24-83 4-4 38 28 76 72l68 79 66-1c84-1 106 11 207 110 114 111 144 161 144 236 0 66 2 71 181 384 91 161 109 203 109 261 0 54-44 118-103 149-25 13-31 13-52-1-13-8-43-45-66-80-23-36-46-63-51-60-14 9-9 20 33 83 46 69 45 91-3 91-40-1-50-8-113-88-28-35-82-85-123-113-40-28-95-74-122-102l-49-51-48 17c-62 21-117 10-154-31s-69-134-76-214c-4-51-10-68-21-68-12 0-13 12-8 71 4 38 14 89 22 111 8 23 13 43 11 45-10 9-98-83-117-122-22-45-40-58-40-30 0 43 55 114 134 173 26 20 27 22 10 29-11 5-47 8-81 8-43 0-63 4-63 12 0 25 80 29 156 7 20-5 21-1 27 83 13 211 94 333 348 530 109 84 189 164 215 215l15 28H207l5-97zm1883-645c33 1 45-3 45-13 0-11-12-15-40-15-36 0-40-2-40-26 0-14-5-35-11-47-16-30-178-187-183-178-9 14 34 71 82 108 70 53 86 84 79 145-5 43-4 48 8 38 8-7 35-12 60-12zm-385-538c55-55-16-156-125-181-61-13-75-8-57 21 7 11 12 38 12 61 0 35 6 48 39 80 45 46 97 53 131 19zm-115-36c-31-34-40-66-25-93 13-25 22-26 65-5 36 17 69 69 64 99-3 15-14 21-42 23-30 3-42-2-62-24zM299 1883c-15-2-36-14-47-26l-21-22 20-100 19-102c0-1 9-7 21-13 15-9 33-8 67 1l47 12-17 91-23 129c-6 38-8 39-66 30zm80-286c-21-5-47-20-60-33l-23-25 29-87c42-123 62-139 139-107l36 15-21 53c-12 28-31 84-42 122l-22 71-36-9zm74-283c-49-21-51-49-8-133 44-88 65-100 128-76l45 17-53 101c-29 56-59 103-66 104-8 1-29-5-46-13zm130-234c-57-25-55-43 8-130 55-77 71-83 132-54l33 16-60 93c-34 52-63 94-66 94s-24-8-47-19zm145-205c-49-27-46-51 13-112 70-71 91-79 135-52l34 21-68 79c-37 43-71 79-77 79-5-1-22-7-37-15zm897-451c-16-7-43-13-58-14h-28l43-60c23-33 45-60 48-60 6 0 32 142 27 146-1 1-15-5-32-12z" fill="#fff"/></svg>