<svg xmlns="http://www.w3.org/2000/svg" width="240" height="240" viewBox="0 0 2400 2400" preserveAspectRatio="xMidYMid meet"><path d="M173 2043c6-113 9-130 27-143 21-16 21-16-4-39-21-20-23-26-12-35 7-6 18-42 25-81 19-113 30-143 51-150 16-5 18-10 10-25-15-29-13-42 27-151 29-77 43-103 61-110 19-7 21-12 11-27-10-16-4-34 40-115 31-58 60-98 72-102 13-4 18-12 14-24-3-10 11-40 37-77 69-97 85-114 106-114 15 0 19-5 15-21-5-16 11-38 68-95 40-41 82-74 92-74 13 0 17-5 14-15-6-14 53-70 141-133l42-30 64 21 64 20 49-31c48-31 49-32 72-124 13-51 27-99 33-105 21-26 47-11 113 64 38 43 73 79 79 80 6 2 31-26 55-62 55-81 73-97 102-93 22 3 25 12 42 112l18 110 82 81c97 96 131 157 132 235 1 63 9 80 149 324 121 210 125 217 136 274 10 57-2 122-31 164-29 41-116 88-149 82-17-4-31 0-39 10-9 10-30 16-58 16-49 0-71-17-156-123-21-26-71-69-111-97-41-27-90-68-110-92-32-37-39-41-56-30-32 20-120 15-159-9l-34-20 7 72c20 202 87 302 332 495 149 117 203 173 239 250 14 29 25 55 25 58s-390 6-867 6H167l6-127zm207-15c1-176 53-425 131-622 104-262 278-519 484-714 85-81 100-102 72-102-5 0-37 28-72 61l-64 61-35-21c-25-16-36-18-42-10-7 11 31 48 50 49 5 0-11 21-35 48-25 26-56 63-71 82l-27 34-34-16c-19-9-38-14-41-11-13 13-5 24 24 35 17 5 30 13 28 17-2 3-29 45-62 93l-58 87-40-16c-29-12-42-13-51-4-8 8 0 15 31 28 24 9 41 19 40 23-2 3-25 50-52 104-47 93-50 97-75 90-39-10-56-10-58 1-2 6 10 15 26 20 16 6 32 13 36 16 3 4-13 61-35 127l-42 120-31-9c-44-12-57-11-57 5 0 8 15 17 35 20 19 4 36 10 39 14s-5 63-17 131l-22 123-42-6c-25-3-45-1-49 5-9 15 0 20 46 26l42 6-4 93c-4 85-2 94 14 94s18-10 18-82zm1720-645c32 7 51-10 29-24-8-5-26-9-40-9-23 0-27-5-33-41-5-34-20-54-93-125-81-79-103-95-103-76 0 20 59 89 99 116 57 40 75 76 67 138l-7 49 26-17c16-11 36-14 55-11zm-859-106c24-8 50-12 57-9 16 5 16 3-12-59-27-63-46-143-46-199 0-30-4-40-16-40-15 0-16 10-11 73 3 39 12 91 21 115 14 39 14 42-2 33-32-18-91-86-107-123-15-37-28-47-39-30-8 13 29 85 60 117 16 17 45 43 64 57 19 15 31 31 26 35-4 4-39 9-78 10-74 2-92 8-68 23 22 14 100 12 151-3zm469-427c24-24 25-39 6-83-20-48-68-84-132-98-47-11-57-10-65 2-6 9-4 18 5 24 9 7 12 21 9 37-7 36 24 97 61 119 41 25 91 24 116-1zm-97-22c-11-5-29-25-39-43-15-28-16-38-6-59 14-31 27-32 69-6 32 19 63 66 63 93 0 26-47 34-87 15z"/><path d="M353 2016c7-103 5-106-54-106-16 0-29-5-29-11 0-8 14-10 45-6l44 7 6-38c11-63 36-196 41-213 3-13-5-19-32-26-21-4-39-14-41-20-3-8 7-8 37-1 22 6 42 9 44 7 1-2 18-51 38-109 19-58 39-113 43-122 5-14-2-21-34-34-23-9-41-20-41-25 0-12 5-11 47 6 19 8 37 15 39 15s28-49 59-109l54-109-39-16c-56-22-50-39 6-18 40 15 47 15 54 2 5-8 34-51 64-95l55-80-29-14c-17-8-30-18-30-23 0-11 7-10 41 8 29 15 31 14 52-13 12-15 44-52 71-82l49-55-29-22c-36-29-25-43 13-16l29 20 64-58c36-33 72-59 80-60 8 0-20 32-63 71-264 241-487 613-576 962-32 122-61 324-61 418 0 38-4 59-12 59s-9-26-5-94zm1678-650c14-51-3-82-87-162-40-39-74-78-74-87s39 23 90 73c84 83 90 91 90 129v41h40c22 0 40 5 40 10 0 6-16 10-36 10-19 0-44 4-54 10-17 9-18 7-9-24zm-918-83c-41-8-24-23 20-17 23 3 62-1 86-8l44-13-57-44c-54-41-116-119-116-148 0-25 16-12 34 27 15 35 107 130 126 130 4 0-1-27-11-61-17-56-27-191-13-176 4 3 8 34 11 68 4 51 24 124 57 200 6 13-6 19-63 32-69 17-78 18-118 10zm475-443c-32-25-52-71-46-109 3-19 0-32-9-35-7-3-13-11-13-17 0-16 76-7 123 16 61 29 99 119 65 153-19 19-92 15-120-8zm93 0c43-24 9-102-58-132-24-11-47-17-50-15-2 3-7 23-10 44-4 29 0 44 17 66 33 42 68 54 101 37z" fill="#fff"/></svg>