<svg xmlns="http://www.w3.org/2000/svg" width="240" height="240" viewBox="0 0 2400 2400" preserveAspectRatio="xMidYMid meet"><path d="M593 2124c-11-28 18-95 59-140 47-51 169-116 252-135 55-12 56-13 75-64 11-29 26-85 35-126 28-138 46-438 30-516-6-29-9-31-68-37-78-8-174-32-203-52-32-20-31-68 1-90 25-15 95-36 169-49l38-6-35-39c-128-142-123-358 11-496 85-88 226-125 345-90 250 72 339 390 164 584l-37 41 38 6c74 13 144 34 169 49 32 22 33 70 2 90-30 20-126 44-204 52l-63 7-7 64c-12 118 10 390 43 523 30 125 37 136 97 149 74 16 186 72 236 117 48 44 80 101 80 144v30h-610c-547 0-611-2-617-16z"/><path d="M636 2078c25-82 147-161 301-198 51-12 53-13 74-68 47-126 61-223 66-484l5-246-48-7c-164-21-249-44-242-67 6-19 94-46 188-57 46-6 86-14 89-17s-12-20-34-37c-63-50-86-78-114-137-35-73-37-191-4-261 29-64 87-125 147-157 44-23 63-27 141-27s97 4 141 27c60 32 118 93 148 157 32 71 30 199-6 267-29 54-63 94-118 135-19 15-33 29-30 32s43 11 90 17c97 13 182 39 188 58 7 24-70 45-242 67l-48 7 5 241c5 256 20 360 68 489 20 55 22 57 72 69 74 17 145 46 201 82 48 31 106 98 106 124 0 11-99 13-576 13H629l7-22z" fill="#fff"/></svg>