<svg xmlns="http://www.w3.org/2000/svg" width="240" height="240" viewBox="0 0 2400 2400" preserveAspectRatio="xMidYMid meet"><path d="M590 2113c0-98 139-213 307-254 64-16 69-21 92-92 38-118 53-226 58-444l6-211-49-7c-181-23-246-49-252-98-3-21 4-29 36-46 22-11 70-25 108-32 105-17 102-15 57-62-52-53-80-109-92-183-25-160 55-315 199-383 47-22 69-26 145-26s99 4 146 26c218 102 272 394 106 566-46 48-53 40 68 64 33 6 77 20 98 31 32 16 38 24 35 45-6 49-72 75-250 98l-48 6v149c0 182 15 325 46 449 31 121 40 134 105 149 67 16 183 72 231 111 40 35 78 103 78 144v27H590v-27z"/></svg>