<svg xmlns="http://www.w3.org/2000/svg" width="240" height="240" viewBox="0 0 2400 2400" preserveAspectRatio="xMidYMid meet"><path d="M1012 2149c-99-13-240-50-337-88l-81-31v-375l-88-225-158-411-71-186-44-11c-95-26-114-151-31-203 47-29 104-20 142 22 26 30 28 37 23 91l-5 59 184 224c102 124 190 225 196 225 7 0 9-15 5-42-3-24-16-162-28-307l-23-263-32-15c-72-35-85-132-24-185 51-46 141-32 168 27 18 39 15 99-6 126-19 24-18 25 104 304 68 154 127 281 132 283 7 2 94-498 115-659 1-8-12-30-29-47-54-54-52-136 6-187 34-30 120-28 154 4 57 54 55 149-3 190l-27 20 54 338 59 343c7 8 18-16 139-293 116-267 117-269 101-297-26-43-22-112 7-143 73-79 206-18 192 88-5 40-51 95-79 95-9 0-19 68-36 262l-28 311c-5 36-3 47 8 46 8 0 95-100 194-222l180-222-3-62c-3-56-1-64 27-95 26-29 35-33 78-33 69 0 100 24 109 83 10 67-16 112-77 132l-45 14-48 126-160 405-111 280v135c0 74 3 156 7 182 7 43 5 49-16 64-40 26-209 82-313 104-115 24-368 34-481 19z"/><path d="M1035 2113c-124-16-375-85-375-103 0-4 33-20 73-34 289-104 639-110 922-15 49 17 94 34 98 38 18 18-224 90-368 111-67 9-287 11-350 3zm-403-175c4-41 22-50 173-88 169-43 266-53 464-48 144 4 198 10 296 33 66 15 140 35 165 44 41 15 45 20 48 54l3 37-53-22c-29-12-102-35-163-52-106-28-118-30-330-30-242-1-334 12-511 75-45 16-85 29-89 29-3 0-5-15-3-32zm2-189l-9-112 35-15c53-22 207-59 301-73 222-31 554-5 734 58l80 28 3 114c2 105 1 113-15 106-52-20-190-55-278-71-135-24-403-24-535-1-82 15-253 57-293 73-11 4-16-21-23-107zm989-48c-50-44-64-49-96-39-18 5-38 12-46 14-9 3-1 14 24 33 38 28 39 28 83 14 24-9 40-19 35-22zm-716 8c38-23 35-31-16-48-30-10-37-8-73 18l-39 29 28 10c43 16 63 14 100-9zm352-38l35-19-84-42-84 42 35 19c18 10 41 18 49 18s31-8 49-18zm-804-480C298 782 297 781 271 786c-39 8-81-28-81-70 0-80 104-105 135-32 11 25 11 37-2 67l-15 37 163 199c268 328 246 304 277 291 15-7 30-15 35-18 4-3-6-154-23-334l-30-331c0-2-13-6-30-10-84-18-76-145 9-145 68 0 99 74 52 124-28 30-39-3 119 359l125 287h37c34 0 38-3 43-32 33-185 114-712 110-716-2-3-15-10-27-16-77-39-48-156 39-156 88 0 111 119 30 158-23 11-27 18-23 40 6 27 116 711 116 718 0 2 17 4 38 4h37l198-458c63-144 70-165 56-175-43-32-46-94-6-122 68-48 150 34 102 102-8 12-28 24-44 28-27 6-30 11-36 58l-55 607c0 11 67 47 73 39 2-2 97-118 211-258 190-233 206-255 191-271-21-24-19-76 5-100 44-44 120-8 120 57 0 41-43 77-81 69-25-5-28-1-79 132l-268 674c-4 4-49-6-100-22-165-53-253-65-497-64-237 0-338 14-503 70l-76 24c-1 0-74-184-161-409z" fill="#fff"/></svg>