<svg xmlns="http://www.w3.org/2000/svg" width="240" height="240" viewBox="0 0 2400 2400" preserveAspectRatio="xMidYMid meet"><path d="M1020 2130c-105-15-239-49-330-84l-85-33 3-124c2-78-2-152-11-199s-70-216-166-458L280 840c0-6-14-10-31-10-43 0-99-56-99-99 0-39 24-87 49-101 26-13 84-13 115 1 14 7 33 28 42 47 14 29 14 41 5 74-11 35-10 41 11 67 171 211 353 421 366 421 12 0 14-10 9-57l-28-305c-16-177-26-248-35-248-7 0-26-12-43-26-74-62-33-184 61-184 52 0 92 22 108 59 14 35 6 93-15 111-8 7-15 16-15 21s48 116 106 247l126 281c13 30 22 41 29 34 8-8 118-629 119-670 0-6-8-14-18-17-27-9-52-59-52-105 0-31 7-49 29-73 27-30 35-33 86-33s59 3 86 33c22 24 29 42 29 73 0 46-25 96-52 105-10 3-18 10-18 15 0 6 25 158 55 339l55 335c0 4 5 5 11 3 5-2 66-129 134-281l124-279-20-31c-67-111 66-225 163-138 64 57 33 156-58 186-1 0-14 134-30 298-19 210-24 301-17 308 8 8 67-56 202-218 168-200 190-231 184-253-24-84 19-150 98-150 22 0 49 5 60 10 25 14 49 62 49 99 0 41-45 90-90 100l-34 7-159 394-158 395 3 183c2 148-1 185-13 196-17 18-184 66-345 102-132 29-330 40-444 24z"/><path d="M652 1960c9-29 194-83 358-105 248-34 549-3 725 75 72 32 39 36-45 6-145-53-259-70-460-70-232 0-377 25-564 100-13 5-17 3-14-6zm3-100c-11-18 242-83 398-101 131-15 344-6 464 20 131 29 243 63 243 74s-6 10-160-31c-281-74-562-66-872 27-37 11-70 16-73 11zm173-143c-21-5-38-12-38-15 0-4 15-16 33-28 26-17 38-19 67-11 45 11 47 14 24 32-36 28-49 32-86 22zm685-10c-18-12-33-24-33-27s18-11 40-16c34-10 43-8 70 10 36 25 37 32 6 40-13 3-30 8-38 10-7 3-28-5-45-17zm-340-35c-18-9-33-18-33-22 0-3 15-13 33-22 29-14 35-13 71 3l39 17-39 20c-36 18-41 18-71 4zm-510-76c23-18 143-50 267-73 128-23 409-23 540 0 114 21 270 66 270 80 0 11-16 7-112-21-130-39-254-55-428-55-180 0-297 15-443 58-98 28-120 31-94 11z" fill="#fff"/></svg>