<svg xmlns="http://www.w3.org/2000/svg" width="240" height="240" viewBox="0 0 2400 2400" preserveAspectRatio="xMidYMid meet"><path d="M460 2190c-18-18-20-31-18-108 3-86 3-87 35-107s32-21 33-102c0-46 4-83 8-83 5 0 36-32 70-72l62-72V743l-53-49c-28-27-69-63-90-81l-37-32V420c0-156 6-194 34-212 6-4 77-8 159-8h147v169l55 17c52 17 58 17 110 0l55-17V200h350v169l55 17c52 17 58 17 110 0l55-17V200h148c81 0 152 4 158 8 28 18 34 56 34 212v161l-37 32c-21 18-62 54-90 81l-53 49v904l61 69c33 38 65 71 70 72 5 2 9 40 9 85 1 81 1 82 33 102s32 21 35 107c5 142 89 128-763 128-716 0-725 0-745-20z"/><path d="M484 2157c-3-8-4-45-2-83l3-69h1440v160l-718 3c-596 2-718 0-723-11zm66-257v-70h1310v140H550v-70zm80-170l52-60h1046l104 120H578l52-60zm60-535V750h1030v890H690v-445zm-85-545l-69-70h1338l-138 140H674l-69-70zm-93-252l3-153 128-3 127-3v157l78 25 77 25 72-25 73-26V240h269l6 154 69 27 70 26 78-26 78-25V239l128 3 127 3 6 305H509l3-152z" fill="#fff"/></svg>