<svg xmlns="http://www.w3.org/2000/svg" width="240" height="240" viewBox="0 0 2400 2400" preserveAspectRatio="xMidYMid meet"><path d="M460 2180c-17-17-20-33-20-100s3-83 20-100c11-11 29-20 40-20 18 0 20-7 20-83v-82l130-148V743l-89-79-90-79V418c-1-220-12-208 184-208h144l6 163 59 20c57 19 60 19 112 1l54-18V210h350v166l54 18c52 18 55 18 112-1l59-20 6-163h144c196 0 185-12 184 207l-1 168-89 78-89 79v906l130 144v84c0 82 0 84 24 84 40 0 56 34 56 122 0 131 82 118-765 118-712 0-725 0-745-20zm1369-189c44-28-10-31-629-31s-673 3-629 31c18 11 1240 11 1258 0zm-2-183c-6-19-1248-19-1254 0-4 9 126 12 627 12s631-3 627-12zm-129-155c3-10-102-13-502-13-278 0-506 4-506 8 0 5 3 12 7 15 3 4 229 6 501 5 386-2 496-6 500-15zm-3-913c0-13-62-15-489-18-290-1-494 2-499 7-29 29 12 31 496 29 430-3 492-5 492-18zm203-172c-4-10-151-14-681-16-598-2-677 0-677 13s81 15 681 15c540 0 680-3 677-12z"/><path d="M570 1980c0-7 217-10 630-10s630 3 630 10-217 10-630 10-630-3-630-10zm5-170c-4-7 207-10 625-10s629 3 625 10c-4 6-223 10-625 10s-621-4-625-10zm125-160c0-7 172-10 495-10s495 3 495 10-172 10-495 10-495-3-495-10zm0-910c0-7 173-10 500-10s500 3 500 10-173 10-500 10-500-3-500-10zM540 570c0-7 232-10 675-10s675 3 675 10-232 10-675 10-675-3-675-10z" fill="#fff"/></svg>